<svg width="1177" height="733" viewBox="0 0 1177 733" fill="none" xmlns="http://www.w3.org/2000/svg">
<path d="M1041.32 4.51395C1089.36 -9.14747 1111.28 15.6938 1116.24 29.8221C1137.14 149.178 1116.39 174.494 1098.14 210.259C1083.54 238.87 1038.1 249.657 1017.2 251.474C1013.66 261.482 994.236 275.072 984.964 280.617C983.689 283.168 981.344 289.918 982.169 296.512C983.199 304.753 993.944 314.171 993.503 320.206C993.062 326.24 1002.63 393.203 1026.92 386.578C1051.2 379.954 1053.41 349.783 1054 344.926C1054.59 340.069 1054.88 304.159 1060.62 302.245C1066.36 300.332 1065.03 308.868 1069.45 315.49C1073.87 322.113 1068.71 338.302 1069.3 343.012C1069.89 347.721 1079.31 346.543 1085.79 340.95C1092.26 335.357 1112.72 288.554 1113.16 282.52C1113.6 276.486 1130.53 258.824 1136.56 268.831C1142.6 278.838 1135.68 290.466 1134.8 292.968C1133.91 295.47 1107.13 329.91 1098.15 344.187C1089.17 358.463 1108.45 350.073 1117.73 347.718C1125.15 345.833 1138.09 338.395 1143.63 334.911C1167.92 328.287 1171.15 335.057 1172.04 342.121C1172.92 349.185 1146.58 348.893 1142.01 350.659C1137.45 352.426 1109.93 352.281 1104.78 358.904C1099.62 365.527 1108.46 369.206 1114.79 372.002C1121.11 374.797 1159.97 369.938 1168.21 368.907C1176.45 367.876 1183.23 383.77 1167.04 388.187C1151.73 390.101 1100.36 371.414 1094.03 378.184C1087.7 384.955 1096.54 388.634 1101.39 389.222C1106.25 389.81 1117.29 382.451 1125.38 389.809C1133.48 397.167 1124.21 399.522 1118.32 400.259C1112.43 400.995 1086.97 398.201 1084.17 394.963C1081.38 391.725 1066.51 397.172 1059.3 396.878C1053.53 396.643 1032.27 410.224 1022.36 417.044C999.25 423.521 993.509 415.869 988.357 412.926C983.206 409.983 976.876 397.62 978.494 381.873C979.789 369.274 976.285 354.646 974.371 348.906C965.657 332.776 959.162 338.85 957.003 343.903C954.062 387.32 907.411 482.839 895.49 502.267C883.57 521.695 846.187 547.895 830.292 554.666C817.575 560.083 812.238 569.679 811.159 573.8C800.858 606.179 827.646 610.004 836.919 617.215C846.192 624.425 910.363 611.616 911.687 612.646C913.012 613.677 946.047 603.566 945.832 579.677C945.66 560.566 950.861 548.754 953.483 545.238C968.642 532.579 974.972 544.942 976.444 547.149C977.916 549.357 952.161 592.039 947.305 601.017C942.448 609.995 943.185 615.882 957.903 618.824C972.622 621.767 979.096 597.041 1000.58 596.745C1022.07 596.449 1015.75 612.786 1015.16 617.642C1014.92 623.412 978.754 622.993 960.7 622.062C950.809 627.125 963.448 634.473 971.004 637.514C976.744 645.167 1023.99 630.887 1031.2 640.747C1038.41 650.608 1036.65 655.612 1025.32 660.616C1013.98 665.621 989.255 649.581 976.744 645.167C964.233 640.753 963.498 644.432 963.939 647.964C964.381 651.496 1044.16 696.525 1049.6 701.823C1055.05 707.121 1057.7 718.748 1042.83 724.194C1027.97 729.641 996.028 694.174 975.127 670.481C958.406 651.526 941.764 649.143 935.533 650.321C922.876 654.296 901.388 666.071 916.696 681.376C932.004 696.681 935.832 713.262 935.832 719.64C931.359 737.419 917.091 732.347 910.517 727.589C905.218 723.469 896.887 706.574 905.951 671.958C915.015 637.342 893.045 632.516 880.927 634.43C846.781 636.788 824.115 632.767 817.05 630.462C786.729 607.946 742.721 600.297 715.933 586.906C689.144 573.515 632.921 573.372 605.397 563.661C583.378 555.892 542.744 534.427 525.18 524.666C438.281 487.703 386.916 362.589 372.096 304.653C346.77 140.409 238.883 109.658 225.636 99.3567C215.039 91.1158 70.7964 40.5972 -3.93391e-05 16.368C26.3948 17.0528 110.182 29.1342 234.171 71.9817C389.158 125.541 421.107 285.369 421.549 298.468C421.991 311.566 430.971 335.555 441.423 361.751C475.573 420.618 559.274 475.36 596.856 495.373C613.047 510.089 683.842 511.997 694.733 503.46C705.624 494.923 708.714 481.383 693.699 437.821C678.683 394.258 632.761 371.303 627.609 368.36C622.458 365.417 603.03 363.063 596.996 372.188C590.962 381.314 569.032 397.21 565.5 397.652C561.968 398.094 546.219 396.476 549.603 375.724C552.987 354.973 576.978 355.559 601.704 352.467C621.485 349.993 642.523 356.928 650.57 360.705C655.72 354.082 649.833 345.252 639.235 337.011C628.637 328.77 565.495 311.555 559.166 308.759C552.837 305.964 534.732 295.074 528.255 271.968C521.778 248.863 541.059 250.038 546.505 255.336C551.951 260.634 584.48 291.244 600.377 303.605C613.094 313.494 630.697 322.932 637.91 326.414C642.816 330.584 652.776 336.274 653.364 325.677C654.099 312.432 602.289 280.646 593.898 261.367C585.507 242.088 603.169 239.879 608.468 243.999C612.707 247.296 643.304 293.054 658.073 315.522C660.575 319.593 666.669 326.883 671.026 323.468C676.471 319.2 667.932 279.611 667.343 274.901C666.754 270.192 685.739 249.88 695.896 264.155C706.052 278.43 691.63 296.975 686.479 313.165C682.359 326.117 682.801 334.751 683.537 337.449C682.801 341.128 691.191 341.275 693.251 338.625C695.312 335.976 709.734 317.431 717.977 316.4C726.219 315.369 739.171 323.316 740.055 330.38C740.938 337.444 724.896 343.038 703.702 345.689C686.746 347.81 683.195 360.212 683.539 366.148C696.965 419.953 736.726 450.376 754.928 458.862C813.684 469.689 828.86 412.545 829.104 382.62C813.055 292.551 866.924 292.988 877.815 274.885C888.705 256.782 870.16 251.926 863.831 249.131C857.502 246.335 825.122 255.168 821.295 253.255C817.468 251.342 787.736 223.97 787.145 200.128C786.555 176.286 771.983 164.954 769.775 156.86C767.567 148.765 734.156 139.79 728.415 132.138C722.675 124.485 724.587 111.092 732.683 118.45C739.159 124.337 757.558 138.857 765.948 145.381C770.02 146.067 777.163 145.174 773.159 136.108C769.155 127.042 733.417 95.6383 716.049 81.0694C703.979 61.0547 713.987 55.0198 724.437 62.0834C732.797 67.7342 763.934 110.157 778.457 130.662C780.42 133.606 785.052 137.491 787.877 129.484C791.409 119.476 777.129 72.2343 782.133 64.4337C787.137 56.6331 793.466 59.4289 796.41 63.8439C798.765 67.3759 798.766 82.682 798.472 89.8935C797.344 99.9996 797.002 120.211 804.655 120.211C814.222 120.21 808.334 111.38 819.225 93.2769C830.115 75.1737 829.822 91.9516 830.116 94.3063C830.352 96.1901 817.067 117.463 810.396 127.863C807.6 131.003 803.508 137.813 809.513 139.932C817.02 142.58 827.175 128.157 837.477 124.476C847.78 120.796 848.222 124.328 846.75 131.687C845.279 139.046 817.167 143.758 808.925 144.789C802.331 145.613 799.31 153.963 798.623 158.035C804.632 213.725 840.378 227.351 857.5 227.202C861.622 231.47 920.642 225.284 934.918 215.128C949.194 204.972 932.266 174.803 925.788 142.13C919.31 109.458 981.269 21.5907 1041.32 4.51395Z" fill="#205115" fill-opacity="0.04"/>
</svg>
