<svg width="66" height="87" viewBox="0 0 66 87" fill="none" xmlns="http://www.w3.org/2000/svg">
<path d="M10.5111 7.06487C9.95522 3.26826 12.0648 1.84868 13.1891 1.61347C22.4763 1.22296 24.1928 3.05844 26.7292 4.80853C28.7583 6.2086 29.1215 9.77898 29.0495 11.3892C29.7751 11.7589 30.6133 13.3755 30.9417 14.1376C31.1229 14.2604 31.6127 14.507 32.1224 14.5106C32.7595 14.5151 33.5838 13.7915 34.0383 13.8859C34.4927 13.9802 39.6815 13.9256 39.4219 12.0092C39.1623 10.0927 36.89 9.6209 36.5266 9.52717C36.1632 9.43344 33.4351 9.04957 33.3473 8.5931C33.2595 8.13662 33.8954 8.32344 34.4434 8.05378C34.9914 7.78413 36.1709 8.33945 36.5349 8.34201C36.899 8.34457 36.9041 7.61524 36.5439 7.06568C36.1837 6.51612 32.8301 4.48678 32.3756 4.3924C31.9212 4.29803 30.7482 2.83105 31.5699 2.47215C32.3916 2.11325 33.2063 2.75717 33.3877 2.84962C33.5691 2.94207 35.919 5.32904 36.9144 6.15658C37.9098 6.98412 37.4656 5.43109 37.3798 4.70112C37.311 4.11715 36.8755 3.0565 36.6664 2.59917C36.4068 0.682757 36.9542 0.504271 37.5003 0.508113C38.0464 0.511955 37.7592 2.51569 37.8477 2.881C37.9361 3.2463 37.6483 5.34121 38.1002 5.80024C38.5521 6.25927 38.9207 5.62367 39.1969 5.16976C39.4732 4.71586 39.4944 1.70737 39.4989 1.0692C39.5034 0.431039 40.7802 0.075339 40.9533 1.35295C40.9449 2.53811 39.0072 6.26248 39.4585 6.81268C39.9097 7.36288 40.2783 6.72728 40.3719 6.36325C40.4654 5.99923 40.0168 5.08436 40.6577 4.54185C41.2987 3.99933 41.3846 4.7293 41.3814 5.18513C41.3782 5.64096 40.9096 7.55226 40.6353 7.73267C40.361 7.91308 40.6257 9.10016 40.5308 9.64652C40.4549 10.0836 41.2739 11.8398 41.6929 12.6633C41.9531 14.4886 41.3134 14.8488 41.0378 15.2115C40.7622 15.5742 39.7584 15.9319 38.5771 15.65C37.632 15.4246 36.4843 15.5442 36.0285 15.6321C34.7142 16.1334 35.1108 16.6893 35.4734 16.9046C38.7456 17.5658 45.5407 22.081 46.8983 23.1846C48.2558 24.2882 49.8724 27.3994 50.2275 28.6783C50.5116 29.7014 51.1877 30.2045 51.4902 30.3282C53.849 31.4389 54.4093 29.437 55.0509 28.8034C55.6925 28.1697 55.3637 23.153 55.4554 23.0625C55.547 22.9719 55.1103 20.3539 53.2914 20.1298C51.8363 19.9504 50.9904 19.4353 50.7493 19.2002C49.9391 17.9181 50.9429 17.5605 51.1256 17.4706C51.3082 17.3807 54.2952 19.7721 54.9291 20.2325C55.5631 20.6928 56.0182 20.696 56.3899 19.6045C56.7617 18.5131 54.9465 17.771 55.14 16.1313C55.3336 14.4915 56.5124 15.138 56.8758 15.2318C57.3122 15.3078 56.9166 18.0583 56.6643 19.4241C56.9499 20.2284 57.6358 19.3398 57.943 18.7949C58.5827 18.4347 57.9719 14.6924 58.7943 14.2424C59.6167 13.7923 59.9795 13.9772 60.2461 14.8908C60.5127 15.8044 59.0442 17.5263 58.5827 18.4347C58.1212 19.3432 58.3936 19.4363 58.6667 19.4382C58.9398 19.4401 63.1664 13.8173 63.6241 13.4558C64.0817 13.0944 64.9926 13.0096 65.2573 14.1967C65.522 15.3838 62.5036 17.4595 60.4916 18.8129C58.8819 19.8956 58.5334 21.1391 58.5603 21.6256C58.7353 22.6297 59.4147 24.3849 60.7326 23.3731C62.0504 22.3613 63.3499 22.2367 63.8349 22.3009C65.142 22.8206 64.6129 23.8562 64.1849 24.3091C63.8182 24.6712 62.4496 25.1357 59.9083 24.0967C57.3669 23.0577 56.779 24.6825 56.8027 25.6247C56.6386 28.2493 56.1049 29.9352 55.8585 30.4501C53.8413 32.5329 52.817 35.8078 51.5293 37.7133C50.2415 39.6189 49.6653 43.8998 48.65 45.8984C47.8377 47.4973 45.7967 50.3761 44.8778 51.6157C41.1928 57.8623 31.1616 60.5147 26.6065 61.0601C13.8612 61.3351 10.4377 69.2428 9.5211 70.1481C8.78782 70.8723 3.4954 81.3501 0.940846 86.4985C1.25835 84.495 3.01972 78.2348 7.52509 69.2224C13.1568 57.9568 25.6329 57.1329 26.6335 57.2311C27.634 57.3293 29.5486 56.8869 31.6459 56.3546C36.4661 54.3463 41.4709 48.5223 43.3708 45.8613C44.6528 44.7763 45.5098 39.4032 44.9701 38.4877C44.4304 37.5722 43.4318 37.2005 39.9679 37.9055C36.504 38.6105 34.2965 41.8771 34.0208 42.2399C33.7452 42.6026 33.3709 44.0587 34.0042 44.6102C34.6375 45.1617 35.6258 46.992 35.6239 47.2655C35.622 47.539 35.3406 48.7223 33.7965 48.2556C32.2523 47.7888 32.5382 45.9674 32.5517 44.0529C32.5625 42.5213 33.3015 40.9888 33.6696 40.414C33.2177 39.9549 32.487 40.3145 31.7537 41.0387C31.0204 41.7629 29.0763 46.3989 28.8 46.8528C28.5238 47.3068 27.5136 48.576 25.6913 48.8367C23.8689 49.0974 24.1523 47.6407 24.6099 47.2792C25.0676 46.9178 27.7225 44.7483 28.8225 43.662C29.7024 42.793 30.5971 41.5472 30.9345 41.0329C31.301 40.7012 31.8338 39.9999 31.0339 39.8484C30.0339 39.659 27.0957 43.2852 25.5451 43.7301C23.9946 44.1751 24.0042 42.8076 24.3709 42.4455C24.6642 42.1558 28.4518 40.2861 30.3089 39.3875C30.6437 39.2379 31.2594 38.8471 31.0435 38.4809C30.7736 38.0232 27.6771 38.2749 27.313 38.2723C26.9489 38.2698 25.5952 36.6192 26.7829 35.9893C27.9706 35.3595 29.2359 36.6448 30.4153 37.2001C31.3589 37.6444 32.0199 37.6976 32.2325 37.6687C32.5049 37.7618 32.6005 37.1243 32.4197 36.9407C32.2389 36.7571 30.9736 35.4718 30.9781 34.8336C30.9826 34.1955 31.7172 33.2889 32.2633 33.2928C32.8094 33.2966 33.0735 34.5748 33.062 36.2158C33.0527 37.5286 33.9602 37.924 34.4151 37.9576C38.642 37.4768 41.3554 34.7547 42.1838 33.4537C43.5981 29.0875 39.4049 27.3561 37.1316 27.0362C30.1205 27.3516 30.6955 23.2529 29.4283 22.2411C28.1611 21.2294 27.6053 22.593 27.3291 23.0469C27.0528 23.5008 27.3989 26.056 27.215 26.3283C27.031 26.6005 24.6504 28.5895 22.8313 28.3943C21.0122 28.1992 20.0039 29.195 19.3661 29.2817C18.7284 29.3684 17.7098 31.8228 17.0701 32.183C16.4304 32.5432 15.4311 32.2626 16.0721 31.7201C16.5849 31.2861 17.8741 30.0309 18.4547 29.4576C18.5478 29.1544 18.5517 28.6013 17.822 28.815C17.0923 29.0286 14.3447 31.4344 13.0621 32.6106C11.4186 33.3284 11.0603 32.5054 11.7025 31.7805C12.2164 31.2007 15.7557 29.2563 17.4611 28.3566C17.7047 28.2367 18.0467 27.9231 17.4663 27.6272C16.7407 27.2574 13.0044 27.8694 12.4615 27.4097C11.9186 26.95 12.1948 26.4961 12.5602 26.3163C12.8525 26.1725 14.0165 26.3266 14.562 26.4216C15.3192 26.6093 16.8529 26.8389 16.9298 26.2559C17.0259 25.5272 16.2952 25.8868 15.028 24.875C13.7608 23.8632 15.0338 24.0545 15.2158 24.0557C15.3614 24.0568 16.8456 25.2828 17.5695 25.8957C17.7801 26.1403 18.2569 26.5205 18.4784 26.0845C18.7553 25.5394 17.7605 24.6207 17.5842 23.7989C17.408 22.9771 17.681 22.979 18.2259 23.1652C18.7707 23.3514 18.8463 25.54 18.8418 26.1782C18.8382 26.6887 19.4428 27.0029 19.7456 27.0962C24.0412 27.1994 25.4369 24.6139 25.5978 23.3082C25.9638 23.0373 26.0869 18.4796 25.4581 17.29C24.8293 16.1003 22.3647 17.0859 19.8149 17.2503C17.265 17.4147 11.2059 11.8106 10.5111 7.06487Z" fill="#91A98C"/>
</svg>
