<svg width="91" height="122" viewBox="0 0 91 122" fill="none" xmlns="http://www.w3.org/2000/svg">
<path d="M13.8928 9.8231C13.1121 4.49043 16.0752 2.49652 17.6543 2.16614C30.699 1.61764 33.11 4.19573 36.6725 6.65388C39.5225 8.62039 40.0328 13.6353 39.9316 15.8969C40.9508 16.4163 42.1281 18.6869 42.5893 19.7573C42.8438 19.9298 43.5318 20.2762 44.2477 20.2812C45.1426 20.2875 46.3004 19.2712 46.9387 19.4037C47.5771 19.5363 54.8651 19.4595 54.5005 16.7677C54.1359 14.076 50.9443 13.4133 50.4338 13.2816C49.9233 13.1499 46.0916 12.6108 45.9682 11.9696C45.8449 11.3285 46.738 11.5909 47.5078 11.2121C48.2775 10.8333 49.9341 11.6133 50.4455 11.6169C50.9569 11.6205 50.9641 10.5961 50.4581 9.82423C49.9521 9.05233 45.2417 6.20194 44.6034 6.06939C43.9651 5.93683 42.3175 3.87634 43.4717 3.37223C44.6259 2.86812 45.7702 3.77257 46.025 3.90242C46.2798 4.03227 49.5803 7.38497 50.9785 8.54732C52.3767 9.70967 51.7528 7.52831 51.6321 6.50301C51.5356 5.68277 50.9239 4.193 50.6301 3.55065C50.2655 0.858882 51.0343 0.608183 51.8014 0.61358C52.5685 0.618976 52.1651 3.43339 52.2894 3.94649C52.4136 4.4596 52.0093 7.40206 52.6441 8.04681C53.2788 8.69156 53.7965 7.79881 54.1845 7.16126C54.5725 6.52371 54.6023 2.29803 54.6086 1.40168C54.6149 0.505323 56.4083 0.00571219 56.6514 1.80022C56.6397 3.46488 53.918 8.69607 54.5518 9.46887C55.1856 10.2417 55.7033 9.34891 55.8348 8.83761C55.9662 8.32631 55.336 7.0413 56.2363 6.27929C57.1366 5.51729 57.2573 6.54259 57.2528 7.18284C57.2483 7.8231 56.5901 10.5077 56.2048 10.7611C55.8195 11.0145 56.1913 12.6818 56.058 13.4492C55.9514 14.0632 57.1018 16.5299 57.6903 17.6866C58.0558 20.2503 57.1573 20.7562 56.7701 21.2657C56.383 21.7752 54.9731 22.2775 53.3138 21.8817C51.9864 21.565 50.3743 21.7329 49.7342 21.8565C47.8882 22.5606 48.4452 23.3414 48.9545 23.6438C53.5506 24.5725 63.0948 30.9145 65.0016 32.4646C66.9085 34.0147 69.1791 38.3846 69.6778 40.1809C70.0768 41.6179 71.0265 42.3247 71.4514 42.4984C74.7646 44.0584 75.5515 41.2467 76.4527 40.3566C77.3539 39.4666 76.8921 32.4202 77.0208 32.293C77.1496 32.1659 76.5362 28.4887 73.9814 28.1738C71.9375 27.9219 70.7494 27.1984 70.4107 26.8681C69.2728 25.0673 70.6826 24.565 70.9392 24.4388C71.1958 24.3125 75.3913 27.6715 76.2817 28.3181C77.1721 28.9646 77.8113 28.9691 78.3335 27.4361C78.8557 25.9031 76.306 24.8607 76.5779 22.5576C76.8498 20.2545 78.5055 21.1625 79.016 21.2942C79.6289 21.4009 79.0733 25.2643 78.7188 27.1827C79.12 28.3124 80.0834 27.0642 80.515 26.2989C81.4135 25.793 80.5555 20.5367 81.7106 19.9045C82.8657 19.2723 83.3753 19.532 83.7498 20.8152C84.1243 22.0984 82.0617 24.517 81.4135 25.793C80.7652 27.069 81.1479 27.1998 81.5314 27.2025C81.9149 27.2052 87.8516 19.3074 88.4945 18.7997C89.1373 18.292 90.4166 18.173 90.7885 19.8403C91.1603 21.5077 86.9207 24.4232 84.0946 26.3241C81.8337 27.8449 81.3441 29.5916 81.3819 30.2748C81.6277 31.6852 82.582 34.1506 84.4331 32.7294C86.2841 31.3081 88.1094 31.1332 88.7906 31.2233C90.6265 31.9534 89.8833 33.408 89.2822 34.044C88.7672 34.5526 86.8448 35.205 83.2753 33.7457C79.7057 32.2863 78.88 34.5685 78.9133 35.8919C78.6828 39.5784 77.9331 41.9464 77.5871 42.6696C74.7538 45.595 73.315 50.1949 71.5063 52.8714C69.6976 55.5479 68.8882 61.5609 67.462 64.3681C66.3212 66.6139 63.4544 70.6574 62.1637 72.3984C56.9879 81.1723 42.8981 84.8978 36.5002 85.6638C18.5984 86.0501 13.7898 97.1572 12.5023 98.4287C11.4724 99.446 4.03871 114.163 0.450632 121.394C0.8966 118.58 3.37058 109.787 9.69875 97.1285C17.609 81.305 35.1327 80.1478 36.538 80.2857C37.9434 80.4236 40.6327 79.8023 43.5785 79.0547C50.3489 76.2338 57.3785 68.0535 60.0471 64.3159C61.8477 62.7919 63.0515 55.245 62.2934 53.9591C61.5353 52.6732 60.1327 52.1511 55.2674 53.1413C50.4021 54.1316 47.3014 58.7198 46.9142 59.2293C46.5271 59.7388 46.0013 61.784 46.8908 62.5586C47.7803 63.3332 49.1686 65.9041 49.1659 66.2883C49.1632 66.6724 48.7679 68.3344 46.5991 67.6788C44.4302 67.0233 44.8318 64.465 44.8507 61.7759C44.8658 59.6247 45.9038 57.4721 46.4209 56.6647C45.7862 56.0199 44.7598 56.5249 43.7298 57.5422C42.6999 58.5594 39.9692 65.0711 39.5812 65.7086C39.1931 66.3462 37.7742 68.129 35.2146 68.4951C32.655 68.8613 33.053 66.8152 33.6958 66.3075C34.3386 65.7998 38.0678 62.7527 39.6127 61.2268C40.8487 60.0062 42.1054 58.2564 42.5792 57.5341C43.0939 57.0681 43.8424 56.0831 42.7188 55.8703C41.3143 55.6043 37.1873 60.6975 35.0094 61.3225C32.8315 61.9475 32.8451 60.0267 33.36 59.5181C33.772 59.1112 39.092 56.4851 41.7005 55.2228C42.1708 55.0127 43.0355 54.4639 42.7323 53.9495C42.3533 53.3066 38.0039 53.6602 37.4925 53.6566C36.9811 53.653 35.0797 51.3346 36.748 50.4499C38.4162 49.5652 40.1934 51.3705 41.85 52.1505C43.1753 52.7745 44.1038 52.8494 44.4024 52.8088C44.785 52.9395 44.9192 52.0441 44.6653 51.7862C44.4114 51.5283 42.6342 49.723 42.6405 48.8266C42.6468 47.9303 43.6786 46.6569 44.4456 46.6623C45.2127 46.6677 45.5836 48.4631 45.5674 50.7681C45.5544 52.612 46.829 53.1673 47.468 53.2145C53.405 52.5392 57.2163 48.7157 58.3798 46.8884C60.3663 40.7557 54.4767 38.3238 51.2836 37.8745C41.4359 38.3175 42.2435 32.5606 40.4636 31.1394C38.6837 29.7183 37.9031 31.6336 37.5151 32.2712C37.1271 32.9088 37.6132 36.4978 37.3548 36.8801C37.0964 37.2625 33.7527 40.0562 31.1976 39.7821C28.6425 39.508 27.2263 40.9067 26.3305 41.0284C25.4347 41.1502 24.0041 44.5977 23.1055 45.1036C22.207 45.6095 20.8034 45.2154 21.7038 44.4534C22.424 43.8438 24.2348 42.0808 25.0502 41.2756C25.1811 40.8496 25.1865 40.0728 24.1616 40.3729C23.1367 40.673 19.2774 44.0522 17.4759 45.7043C15.1675 46.7125 14.6642 45.5564 15.5663 44.5383C16.288 43.7238 21.2593 40.9928 23.6548 39.729C23.9969 39.5607 24.4773 39.1202 23.662 38.7046C22.6428 38.1852 17.3949 39.0447 16.6323 38.3991C15.8698 37.7534 16.2578 37.1159 16.771 36.8634C17.1815 36.6614 18.8165 36.8778 19.5827 37.0112C20.6462 37.2748 22.8004 37.5973 22.9084 36.7785C23.0435 35.755 22.0171 36.26 20.2372 34.8388C18.4573 33.4177 20.2453 33.6864 20.501 33.6882C20.7055 33.6896 22.7902 35.4117 23.8069 36.2726C24.1028 36.6162 24.7724 37.1502 25.0836 36.5377C25.4725 35.7721 24.0752 34.4817 23.8276 33.3274C23.5801 32.1732 23.9636 32.1759 24.7289 32.4374C25.4941 32.6989 25.6004 35.773 25.594 36.6693C25.589 37.3864 26.4382 37.8278 26.8635 37.9588C32.897 38.1037 34.8574 34.4722 35.0834 32.6383C35.5974 32.2577 35.7703 25.8561 34.8871 24.1851C34.0039 22.5142 30.5422 23.8984 26.9608 24.1294C23.3793 24.3603 14.8687 16.4889 13.8928 9.8231Z" fill="#205115"/>
</svg>
