<svg width="474" height="351" viewBox="0 0 474 351" fill="none" xmlns="http://www.w3.org/2000/svg">
<path d="M37.1897 49.5C16.3897 46.3 8.52305 57.8333 7.18972 64C4.68974 115 14.6897 124.5 24.1897 138.5C31.7897 149.7 51.3564 151.833 60.1897 151.5C62.1897 155.5 71.023 160.167 75.1897 162C75.8564 163 77.1897 165.7 77.1897 168.5C77.1897 172 73.1897 176.5 73.6897 179C74.1897 181.5 73.6897 210 63.1897 208.5C52.6897 207 50.1897 194.5 49.6897 192.5C49.1897 190.5 47.1897 175.5 44.6897 175C42.1897 174.5 43.1897 178 41.6897 181C40.1897 184 43.1897 190.5 43.1897 192.5C43.1897 194.5 39.1897 194.5 36.1897 192.5C33.1897 190.5 22.1897 172 21.6897 169.5C21.1897 167 13.1897 160.5 11.1897 165C9.1897 169.5 12.6897 174 13.1897 175C13.6897 176 26.6897 189 31.1897 194.5C35.6897 200 27.1897 197.5 23.1897 197C19.9897 196.6 14.1897 194.167 11.6897 193C1.18967 191.5 0.189697 194.5 0.189697 197.5C0.189697 200.5 11.1897 199 13.1897 199.5C15.1897 200 26.6897 198.5 29.1897 201C31.6897 203.5 28.1897 205.5 25.6897 207C23.1897 208.5 6.68972 208.5 3.18972 208.5C-0.31028 208.5 -2.31028 215.5 4.68972 216.5C11.1897 216.5 31.6897 206 34.6897 208.5C37.6897 211 34.1897 213 32.1897 213.5C30.1897 214 25.1897 211.5 22.1897 215C19.1897 218.5 23.1897 219 25.6897 219C28.1897 219 38.6897 216.5 39.6897 215C40.6897 213.5 47.1897 215 50.1897 214.5C52.5897 214.1 62.1897 218.667 66.6897 221C76.6897 222.5 78.6897 219 80.6897 217.5C82.6897 216 84.6897 210.5 83.1897 204C81.9897 198.8 82.6897 192.5 83.1897 190C85.9897 182.8 89.0231 185 90.1897 187C93.6897 205 118.19 242.5 124.19 250C130.19 257.5 147.19 266.5 154.19 268.5C159.79 270.1 162.523 273.833 163.19 275.5C169.19 288.5 158.19 291.5 154.69 295C151.19 298.5 123.69 296.5 123.19 297C122.69 297.5 108.349 295 107.19 285C106.262 277 103.47 272.333 102.19 271C95.1897 266.5 93.1897 272 92.6897 273C92.1897 274 105.19 290.5 107.69 294C110.19 297.5 110.19 300 104.19 302C98.1897 304 94.1897 294 85.1897 295C76.1897 296 79.6897 302.5 80.1897 304.5C80.5897 306.9 95.6897 304.833 103.19 303.5C107.59 305.1 102.69 308.833 99.6897 310.5C97.6897 314 77.1897 310.5 74.6897 315C72.1897 319.5 73.1897 321.5 78.1897 323C83.1897 324.5 92.6897 316.5 97.6897 314C102.69 311.5 103.19 313 103.19 314.5C103.19 316 72.1897 339 70.1897 341.5C68.1897 344 67.6897 349 74.1897 350.5C80.6897 352 92.1897 335.5 99.6897 324.5C105.69 315.7 112.523 313.833 115.19 314C120.69 315 130.29 318.8 124.69 326C119.09 333.2 118.356 340.333 118.69 343C121.49 350.2 127.19 347.333 129.69 345C131.69 343 134.29 335.5 128.69 321.5C123.09 307.5 132.023 304.333 137.19 304.5C151.59 303.7 160.856 300.833 163.69 299.5C175.19 288.5 193.19 283 203.69 276C214.19 269 237.69 266 248.69 260.5C257.49 256.1 273.356 245 280.19 240C314.59 220 329.523 165 332.69 140C334.69 70 378.19 51.5 383.19 46.5C387.19 42.5 444.856 13.8333 473.19 0C462.19 1.66667 427.79 11.1 378.19 35.5C316.19 66 311.19 134.5 311.69 140C312.19 145.5 309.69 156 306.69 167.5C295.49 193.9 263.356 221.167 248.69 231.5C242.69 238.5 213.19 243 208.19 240C203.19 237 201.19 231.5 205.19 212.5C209.19 193.5 227.19 181.5 229.19 180C231.19 178.5 239.19 176.5 242.19 180C245.19 183.5 255.19 189 256.69 189C258.19 189 264.69 187.5 262.19 179C259.69 170.5 249.69 172 239.19 172C230.79 172 222.356 176 219.19 178C216.69 175.5 218.69 171.5 222.69 167.5C226.69 163.5 252.19 153 254.69 151.5C257.19 150 264.19 144.5 265.69 134.5C267.19 124.5 259.19 126 257.19 128.5C255.19 131 243.19 145.5 237.19 151.5C232.39 156.3 225.523 161.167 222.69 163C220.856 165 216.99 167.9 216.19 163.5C215.19 158 235.19 142 237.69 133.5C240.19 125 232.69 125 230.69 127C229.09 128.6 218.69 149.333 213.69 159.5C212.856 161.333 210.69 164.7 208.69 163.5C206.19 162 207.69 145 207.69 143C207.69 141 198.69 133.5 195.19 140C191.69 146.5 198.69 153.5 201.69 160C204.09 165.2 204.356 168.833 204.19 170C204.69 171.5 201.19 172 200.19 171C199.19 170 192.19 163 188.69 163C185.19 163 180.19 167 180.19 170C180.19 173 187.19 174.5 196.19 174.5C203.39 174.5 205.523 179.5 205.69 182C202.89 205.2 187.856 220 180.69 224.5C156.69 232.1 147.356 209 145.69 196.5C147.69 158 125.19 161 119.69 154C114.19 147 121.69 144 124.19 142.5C126.69 141 140.69 143 142.19 142C143.69 141 154.69 128 153.69 118C152.69 108 158.19 102.5 158.69 99C159.19 95.5 172.69 90 174.69 86.5C176.69 83 175.19 77.5 172.19 81C169.79 83.8 162.856 90.8333 159.69 94C158.023 94.5 154.99 94.5 156.19 90.5C157.39 86.5 170.69 71.5 177.19 64.5C181.19 55.5 176.69 53.5 172.69 57C169.49 59.8 158.69 79.1667 153.69 88.5C153.023 89.8333 151.29 91.7 149.69 88.5C147.69 84.5 151.19 64 148.69 61C146.19 58 143.69 59.5 142.69 61.5C141.89 63.1 142.69 69.5 143.19 72.5C144.19 76.6667 145.39 85.1 142.19 85.5C138.19 86 140.19 82 134.69 75C129.19 68 130.19 75 130.19 76C130.19 76.8 136.856 85 140.19 89C141.523 90.1667 143.59 92.8 141.19 94C138.19 95.5 133.19 90 128.69 89C124.19 88 124.19 89.5 125.19 92.5C126.19 95.5 138.19 96 141.69 96C144.49 96 146.19 99.3333 146.69 101C147.09 124.6 132.856 132.167 125.69 133C124.19 135 99.1897 135.5 92.6897 132C86.1897 128.5 91.6897 115 92.6897 101C93.6897 87 63.1897 53.5 37.1897 49.5Z" fill="#205115"/>
</svg>
