<svg width="1327" height="355" viewBox="0 0 1327 355" fill="none" xmlns="http://www.w3.org/2000/svg">
<path d="M37.1897 49.5C16.3897 46.3 8.52305 57.8333 7.18972 64C4.68974 115 14.6897 124.5 24.1897 138.5C31.7897 149.7 51.3564 151.833 60.1897 151.5C62.1897 155.5 71.023 160.167 75.1897 162C75.8564 163 77.1897 165.7 77.1897 168.5C77.1897 172 73.1897 176.5 73.6897 179C74.1897 181.5 73.6897 210 63.1897 208.5C52.6897 207 50.1897 194.5 49.6897 192.5C49.1897 190.5 47.1897 175.5 44.6897 175C42.1897 174.5 43.1897 178 41.6897 181C40.1897 184 43.1897 190.5 43.1897 192.5C43.1897 194.5 39.1897 194.5 36.1897 192.5C33.1897 190.5 22.1897 172 21.6897 169.5C21.1897 167 13.1897 160.5 11.1897 165C9.1897 169.5 12.6897 174 13.1897 175C13.6897 176 26.6897 189 31.1897 194.5C35.6897 200 27.1897 197.5 23.1897 197C19.9897 196.6 14.1897 194.167 11.6897 193C1.18967 191.5 0.189697 194.5 0.189697 197.5C0.189697 200.5 11.1897 199 13.1897 199.5C15.1897 200 26.6897 198.5 29.1897 201C31.6897 203.5 28.1897 205.5 25.6897 207C23.1897 208.5 6.68972 208.5 3.18972 208.5C-0.31028 208.5 -2.31028 215.5 4.68972 216.5C11.1897 216.5 31.6897 206 34.6897 208.5C37.6897 211 34.1897 213 32.1897 213.5C30.1897 214 25.1897 211.5 22.1897 215C19.1897 218.5 23.1897 219 25.6897 219C28.1897 219 38.6897 216.5 39.6897 215C40.6897 213.5 47.1897 215 50.1897 214.5C52.5897 214.1 62.1897 218.667 66.6897 221C76.6897 222.5 78.6897 219 80.6897 217.5C82.6897 216 84.6897 210.5 83.1897 204C81.9897 198.8 82.6897 192.5 83.1897 190C85.9897 182.8 89.0231 185 90.1897 187C93.6897 205 118.19 242.5 124.19 250C130.19 257.5 147.19 266.5 154.19 268.5C159.79 270.1 162.523 273.833 163.19 275.5C169.19 288.5 158.19 291.5 154.69 295C151.19 298.5 123.69 296.5 123.19 297C122.69 297.5 108.349 295 107.19 285C106.262 277 103.47 272.333 102.19 271C95.1897 266.5 93.1897 272 92.6897 273C92.1897 274 105.19 290.5 107.69 294C110.19 297.5 110.19 300 104.19 302C98.1897 304 94.1897 294 85.1897 295C76.1897 296 79.6897 302.5 80.1897 304.5C80.5897 306.9 95.6897 304.833 103.19 303.5C107.59 305.1 102.69 308.833 99.6897 310.5C97.6897 314 77.1897 310.5 74.6897 315C72.1897 319.5 73.1897 321.5 78.1897 323C83.1897 324.5 92.6897 316.5 97.6897 314C102.69 311.5 103.19 313 103.19 314.5C103.19 316 72.1897 339 70.1897 341.5C68.1897 344 67.6897 349 74.1897 350.5C80.6897 352 92.1897 335.5 99.6897 324.5C105.69 315.7 112.523 313.833 115.19 314C120.69 315 130.29 318.8 124.69 326C119.09 333.2 118.356 340.333 118.69 343C121.49 350.2 127.19 347.333 129.69 345C131.69 343 134.29 335.5 128.69 321.5C123.09 307.5 132.023 304.333 137.19 304.5C151.59 303.7 160.856 300.833 163.69 299.5C175.19 288.5 193.19 283 203.69 276C214.19 269 237.69 266 248.69 260.5C257.49 256.1 273.356 245 280.19 240C314.59 220 329.523 165 332.69 140C334.69 70 378.19 51.5 383.19 46.5C387.19 42.5 444.856 13.8333 473.19 0C462.19 1.66667 427.79 11.1 378.19 35.5C316.19 66 311.19 134.5 311.69 140C312.19 145.5 309.69 156 306.69 167.5C295.49 193.9 263.356 221.167 248.69 231.5C242.69 238.5 213.19 243 208.19 240C203.19 237 201.19 231.5 205.19 212.5C209.19 193.5 227.19 181.5 229.19 180C231.19 178.5 239.19 176.5 242.19 180C245.19 183.5 255.19 189 256.69 189C258.19 189 264.69 187.5 262.19 179C259.69 170.5 249.69 172 239.19 172C230.79 172 222.356 176 219.19 178C216.69 175.5 218.69 171.5 222.69 167.5C226.69 163.5 252.19 153 254.69 151.5C257.19 150 264.19 144.5 265.69 134.5C267.19 124.5 259.19 126 257.19 128.5C255.19 131 243.19 145.5 237.19 151.5C232.39 156.3 225.523 161.167 222.69 163C220.856 165 216.99 167.9 216.19 163.5C215.19 158 235.19 142 237.69 133.5C240.19 125 232.69 125 230.69 127C229.09 128.6 218.69 149.333 213.69 159.5C212.856 161.333 210.69 164.7 208.69 163.5C206.19 162 207.69 145 207.69 143C207.69 141 198.69 133.5 195.19 140C191.69 146.5 198.69 153.5 201.69 160C204.09 165.2 204.356 168.833 204.19 170C204.69 171.5 201.19 172 200.19 171C199.19 170 192.19 163 188.69 163C185.19 163 180.19 167 180.19 170C180.19 173 187.19 174.5 196.19 174.5C203.39 174.5 205.523 179.5 205.69 182C202.89 205.2 187.856 220 180.69 224.5C156.69 232.1 147.356 209 145.69 196.5C147.69 158 125.19 161 119.69 154C114.19 147 121.69 144 124.19 142.5C126.69 141 140.69 143 142.19 142C143.69 141 154.69 128 153.69 118C152.69 108 158.19 102.5 158.69 99C159.19 95.5 172.69 90 174.69 86.5C176.69 83 175.19 77.5 172.19 81C169.79 83.8 162.856 90.8333 159.69 94C158.023 94.5 154.99 94.5 156.19 90.5C157.39 86.5 170.69 71.5 177.19 64.5C181.19 55.5 176.69 53.5 172.69 57C169.49 59.8 158.69 79.1667 153.69 88.5C153.023 89.8333 151.29 91.7 149.69 88.5C147.69 84.5 151.19 64 148.69 61C146.19 58 143.69 59.5 142.69 61.5C141.89 63.1 142.69 69.5 143.19 72.5C144.19 76.6667 145.39 85.1 142.19 85.5C138.19 86 140.19 82 134.69 75C129.19 68 130.19 75 130.19 76C130.19 76.8 136.856 85 140.19 89C141.523 90.1667 143.59 92.8 141.19 94C138.19 95.5 133.19 90 128.69 89C124.19 88 124.19 89.5 125.19 92.5C126.19 95.5 138.19 96 141.69 96C144.49 96 146.19 99.3333 146.69 101C147.09 124.6 132.856 132.167 125.69 133C124.19 135 99.1897 135.5 92.6897 132C86.1897 128.5 91.6897 115 92.6897 101C93.6897 87 63.1897 53.5 37.1897 49.5Z" fill="#205115"/>
<path d="M1289 53.5C1309.8 50.3 1317.67 61.8333 1319 68C1321.5 119 1311.5 128.5 1302 142.5C1294.4 153.7 1274.83 155.833 1266 155.5C1264 159.5 1255.17 164.167 1251 166C1250.33 167 1249 169.7 1249 172.5C1249 176 1253 180.5 1252.5 183C1252 185.5 1252.5 214 1263 212.5C1273.5 211 1276 198.5 1276.5 196.5C1277 194.5 1279 179.5 1281.5 179C1284 178.5 1283 182 1284.5 185C1286 188 1283 194.5 1283 196.5C1283 198.5 1287 198.5 1290 196.5C1293 194.5 1304 176 1304.5 173.5C1305 171 1313 164.5 1315 169C1317 173.5 1313.5 178 1313 179C1312.5 180 1299.5 193 1295 198.5C1290.5 204 1299 201.5 1303 201C1306.2 200.6 1312 198.167 1314.5 197C1325 195.5 1326 198.5 1326 201.5C1326 204.5 1315 203 1313 203.5C1311 204 1299.5 202.5 1297 205C1294.5 207.5 1298 209.5 1300.5 211C1303 212.5 1319.5 212.5 1323 212.5C1326.5 212.5 1328.5 219.5 1321.5 220.5C1315 220.5 1294.5 210 1291.5 212.5C1288.5 215 1292 217 1294 217.5C1296 218 1301 215.5 1304 219C1307 222.5 1303 223 1300.5 223C1298 223 1287.5 220.5 1286.5 219C1285.5 217.5 1279 219 1276 218.5C1273.6 218.1 1264 222.667 1259.5 225C1249.5 226.5 1247.5 223 1245.5 221.5C1243.5 220 1241.5 214.5 1243 208C1244.2 202.8 1243.5 196.5 1243 194C1240.2 186.8 1237.17 189 1236 191C1232.5 209 1208 246.5 1202 254C1196 261.5 1179 270.5 1172 272.5C1166.4 274.1 1163.67 277.833 1163 279.5C1157 292.5 1168 295.5 1171.5 299C1175 302.5 1202.5 300.5 1203 301C1203.5 301.5 1217.84 299 1219 289C1219.93 281 1222.72 276.333 1224 275C1231 270.5 1233 276 1233.5 277C1234 278 1221 294.5 1218.5 298C1216 301.5 1216 304 1222 306C1228 308 1232 298 1241 299C1250 300 1246.5 306.5 1246 308.5C1245.6 310.9 1230.5 308.833 1223 307.5C1218.6 309.1 1223.5 312.833 1226.5 314.5C1228.5 318 1249 314.5 1251.5 319C1254 323.5 1253 325.5 1248 327C1243 328.5 1233.5 320.5 1228.5 318C1223.5 315.5 1223 317 1223 318.5C1223 320 1254 343 1256 345.5C1258 348 1258.5 353 1252 354.5C1245.5 356 1234 339.5 1226.5 328.5C1220.5 319.7 1213.67 317.833 1211 318C1205.5 319 1195.9 322.8 1201.5 330C1207.1 337.2 1207.83 344.333 1207.5 347C1204.7 354.2 1199 351.333 1196.5 349C1194.5 347 1191.9 339.5 1197.5 325.5C1203.1 311.5 1194.17 308.333 1189 308.5C1174.6 307.7 1165.33 304.833 1162.5 303.5C1151 292.5 1133 287 1122.5 280C1112 273 1088.5 270 1077.5 264.5C1068.7 260.1 1052.83 249 1046 244C1011.6 224 996.667 169 993.5 144C991.5 74 948 55.5 943 50.5C939 46.5 881.333 17.8333 853 4C864 5.66667 898.4 15.1 948 39.5C1010 70 1015 138.5 1014.5 144C1014 149.5 1016.5 160 1019.5 171.5C1030.7 197.9 1062.83 225.167 1077.5 235.5C1083.5 242.5 1113 247 1118 244C1123 241 1125 235.5 1121 216.5C1117 197.5 1099 185.5 1097 184C1095 182.5 1087 180.5 1084 184C1081 187.5 1071 193 1069.5 193C1068 193 1061.5 191.5 1064 183C1066.5 174.5 1076.5 176 1087 176C1095.4 176 1103.83 180 1107 182C1109.5 179.5 1107.5 175.5 1103.5 171.5C1099.5 167.5 1074 157 1071.5 155.5C1069 154 1062 148.5 1060.5 138.5C1059 128.5 1067 130 1069 132.5C1071 135 1083 149.5 1089 155.5C1093.8 160.3 1100.67 165.167 1103.5 167C1105.33 169 1109.2 171.9 1110 167.5C1111 162 1091 146 1088.5 137.5C1086 129 1093.5 129 1095.5 131C1097.1 132.6 1107.5 153.333 1112.5 163.5C1113.33 165.333 1115.5 168.7 1117.5 167.5C1120 166 1118.5 149 1118.5 147C1118.5 145 1127.5 137.5 1131 144C1134.5 150.5 1127.5 157.5 1124.5 164C1122.1 169.2 1121.83 172.833 1122 174C1121.5 175.5 1125 176 1126 175C1127 174 1134 167 1137.5 167C1141 167 1146 171 1146 174C1146 177 1139 178.5 1130 178.5C1122.8 178.5 1120.67 183.5 1120.5 186C1123.3 209.2 1138.33 224 1145.5 228.5C1169.5 236.1 1178.83 213 1180.5 200.5C1178.5 162 1201 165 1206.5 158C1212 151 1204.5 148 1202 146.5C1199.5 145 1185.5 147 1184 146C1182.5 145 1171.5 132 1172.5 122C1173.5 112 1168 106.5 1167.5 103C1167 99.5 1153.5 94 1151.5 90.5C1149.5 87 1151 81.5 1154 85C1156.4 87.8 1163.33 94.8333 1166.5 98C1168.17 98.5 1171.2 98.5 1170 94.5C1168.8 90.5 1155.5 75.5 1149 68.5C1145 59.5 1149.5 57.5 1153.5 61C1156.7 63.8 1167.5 83.1667 1172.5 92.5C1173.17 93.8333 1174.9 95.7 1176.5 92.5C1178.5 88.5 1175 68 1177.5 65C1180 62 1182.5 63.5 1183.5 65.5C1184.3 67.1 1183.5 73.5 1183 76.5C1182 80.6667 1180.8 89.1 1184 89.5C1188 90 1186 86 1191.5 79C1197 72 1196 79 1196 80C1196 80.8 1189.33 89 1186 93C1184.67 94.1667 1182.6 96.8 1185 98C1188 99.5 1193 94 1197.5 93C1202 92 1202 93.5 1201 96.5C1200 99.5 1188 100 1184.5 100C1181.7 100 1180 103.333 1179.5 105C1179.1 128.6 1193.33 136.167 1200.5 137C1202 139 1227 139.5 1233.5 136C1240 132.5 1234.5 119 1233.5 105C1232.5 91 1263 57.5 1289 53.5Z" fill="#205115"/>
</svg>
