<svg width="135" height="100" viewBox="0 0 135 100" fill="none" xmlns="http://www.w3.org/2000/svg">
<path d="M124.39 14.1188C130.324 13.2061 132.568 16.4957 132.949 18.2546C133.662 32.8013 130.809 35.511 128.099 39.5042C125.93 42.6988 120.348 43.3073 117.828 43.2122C117.257 44.3531 114.737 45.6842 113.549 46.2071C113.358 46.4923 112.978 47.2624 112.978 48.0611C112.978 49.0594 114.119 50.3429 113.976 51.056C113.834 51.7691 113.976 59.8981 116.972 59.4702C119.968 59.0424 120.681 55.477 120.824 54.9066C120.966 54.3361 121.537 50.0577 122.25 49.9151C122.963 49.7725 122.678 50.7708 123.106 51.6264C123.534 52.4821 122.678 54.3361 122.678 54.9066C122.678 55.477 123.819 55.477 124.675 54.9066C125.531 54.3361 128.669 49.0594 128.812 48.3463C128.955 47.6332 131.237 45.7793 131.808 47.0628C132.378 48.3463 131.38 49.6298 131.237 49.9151C131.094 50.2003 127.385 53.9083 126.102 55.477C124.818 57.0458 127.243 56.3327 128.384 56.1901C129.297 56.076 130.952 55.382 131.665 55.0492C134.661 54.6213 134.946 55.477 134.946 56.3327C134.946 57.1884 131.808 56.7606 131.237 56.9032C130.666 57.0458 127.385 56.618 126.672 57.331C125.959 58.0441 126.958 58.6146 127.671 59.0424C128.384 59.4702 133.091 59.4702 134.09 59.4702C135.089 59.4702 135.659 61.4668 133.662 61.7521C131.808 61.7521 125.959 58.7572 125.103 59.4702C124.247 60.1833 125.246 60.7538 125.816 60.8964C126.387 61.039 127.813 60.3259 128.669 61.3242C129.525 62.3225 128.384 62.4651 127.671 62.4651C126.958 62.4651 123.962 61.7521 123.677 61.3242C123.391 60.8964 121.537 61.3242 120.681 61.1816C119.996 61.0675 117.257 62.3701 115.974 63.0356C113.121 63.4634 112.55 62.4651 111.979 62.0373C111.409 61.6095 110.838 60.0407 111.266 58.1867C111.609 56.7035 111.409 54.9066 111.266 54.1935C110.467 52.1399 109.602 52.7674 109.269 53.3378C108.271 58.4719 101.281 69.168 99.5689 71.3072C97.8572 73.4465 93.0071 76.0135 91.01 76.584C89.4123 77.0403 88.6325 78.1052 88.4423 78.5806C86.7305 82.2886 89.8688 83.1442 90.8674 84.1425C91.8659 85.1408 99.7116 84.5704 99.8542 84.713C99.9969 84.8556 104.088 84.1425 104.419 81.2903C104.684 79.0084 105.48 77.6774 105.845 77.2971C107.843 76.0135 108.413 77.5823 108.556 77.8675C108.698 78.1527 104.99 82.859 104.276 83.8573C103.563 84.8556 103.563 85.5687 105.275 86.1391C106.987 86.7096 108.128 83.8573 110.696 84.1425C113.263 84.4278 112.265 86.2818 112.122 86.8522C112.008 87.5368 107.7 86.9473 105.56 86.567C104.305 87.0234 105.703 88.0882 106.559 88.5636C107.129 89.5619 112.978 88.5636 113.691 89.8471C114.404 91.1307 114.119 91.7011 112.693 92.129C111.266 92.5568 108.556 90.275 107.129 89.5619C105.703 88.8488 105.56 89.2767 105.56 89.7045C105.56 90.1324 114.404 96.6926 114.975 97.4057C115.546 98.1188 115.688 99.5449 113.834 99.9728C111.979 100.401 108.698 95.6943 106.559 92.5568C104.847 90.0468 102.897 89.5144 102.137 89.5619C100.567 89.8471 97.8286 90.931 99.4263 92.9846C101.024 95.0383 101.233 97.0729 101.138 97.8335C100.339 99.8872 98.7131 99.0695 97.9998 98.404C97.4292 97.8335 96.6874 95.6943 98.2851 91.7011C99.8828 87.7079 97.3341 86.8047 95.8601 86.8522C91.7518 86.624 89.108 85.8064 88.2997 85.4261C85.0188 82.2886 79.8834 80.7198 76.8878 78.7232C73.8921 76.7266 67.1876 75.8709 64.0494 74.3021C61.5387 73.0471 57.012 69.8811 55.0625 68.455C45.2482 62.7504 40.9878 47.0628 40.0844 39.9321C39.5138 19.966 27.1033 14.6893 25.6768 13.2631C24.5356 12.1222 8.08344 3.94567 0 0C3.13828 0.475382 12.9525 3.16604 27.1033 10.1256C44.7918 18.8251 46.2183 38.3633 46.0756 39.9321C45.933 41.5008 46.6462 44.4957 47.5021 47.7759C50.6974 55.3059 59.865 63.0831 64.0494 66.0305C65.7612 68.0271 74.1774 69.3106 75.6039 68.455C77.0304 67.5993 77.601 66.0305 76.4598 60.6112C75.3186 55.1918 70.1833 51.7691 69.6127 51.3412C69.0421 50.9134 66.7597 50.3429 65.9038 51.3412C65.0479 52.3395 62.1949 53.9083 61.767 53.9083C61.339 53.9083 59.4846 53.4804 60.1978 51.056C60.9111 48.6315 63.7641 49.0594 66.7597 49.0594C69.1562 49.0594 71.5622 50.2003 72.4657 50.7708C73.1789 50.0577 72.6083 48.9168 71.4671 47.7759C70.3259 46.6349 63.0508 43.64 62.3376 43.2122C61.6243 42.7843 59.6273 41.2156 59.1993 38.3633C58.7714 35.511 61.0537 35.9389 61.6243 36.6519C62.1949 37.365 65.6185 41.5008 67.3303 43.2122C68.6997 44.5813 70.6588 45.9694 71.4671 46.4923C71.9902 47.0628 73.0933 47.8899 73.3215 46.6349C73.6068 45.0662 67.9009 40.5025 67.1876 38.0781C66.4744 35.6536 68.6141 35.6536 69.1847 36.2241C69.6412 36.6804 72.6083 42.5942 74.0348 45.494C74.2725 46.0169 74.8907 46.9772 75.4613 46.6349C76.1745 46.2071 75.7466 41.3582 75.7466 40.7877C75.7466 40.2173 78.3143 38.0781 79.3128 39.9321C80.3113 41.786 78.3143 43.7826 77.4584 45.6366C76.7737 47.1198 76.6976 48.1562 76.7451 48.4889C76.6025 48.9168 77.601 49.0594 77.8863 48.7742C78.1716 48.4889 80.1687 46.4923 81.1672 46.4923C82.1658 46.4923 83.5923 47.6332 83.5923 48.4889C83.5923 49.3446 81.5952 49.7725 79.0275 49.7725C76.9734 49.7725 76.3647 51.1986 76.3172 51.9117C77.116 58.529 81.405 62.7504 83.4496 64.0339C90.2968 66.2016 92.9595 59.6129 93.435 56.0475C92.8644 45.0662 99.2836 45.9219 100.853 43.9253C102.422 41.9287 100.282 41.073 99.5689 40.6451C98.8557 40.2173 94.8615 40.7877 94.4336 40.5025C94.0056 40.2173 90.8674 36.5093 91.1527 33.657C91.438 30.8047 89.8688 29.236 89.7262 28.2377C89.5835 27.2394 85.732 25.6706 85.1614 24.6723C84.5908 23.674 85.0188 22.1052 85.8747 23.1035C86.5594 23.9022 88.5374 25.9083 89.4409 26.8115C89.9164 26.9541 90.7818 26.9541 90.4394 25.8132C90.0971 24.6723 86.3026 20.3939 84.4482 18.3973C83.307 15.8302 84.5908 15.2597 85.732 16.2581C86.645 17.0567 89.7262 22.5806 91.1527 25.2428C91.3429 25.6231 91.8374 26.1555 92.2939 25.2428C92.8644 24.1018 91.8659 18.2547 92.5792 17.399C93.2924 16.5433 94.0056 16.9711 94.2909 17.5416C94.5192 17.9979 94.2909 19.8234 94.1483 20.6791C93.863 21.8676 93.5206 24.273 94.4336 24.3871C95.5748 24.5297 95.0042 23.3888 96.5733 21.3922C98.1425 19.3956 97.8572 21.3922 97.8572 21.6774C97.8572 21.9056 95.9552 24.2445 95.0042 25.3854C94.6238 25.7181 94.0342 26.4692 94.7189 26.8115C95.5748 27.2394 97.0013 25.6706 98.2851 25.3854C99.5689 25.1001 99.5689 25.528 99.2836 26.3837C98.9983 27.2394 95.5748 27.382 94.5762 27.382C93.7774 27.382 93.2924 28.3327 93.1497 28.8081C93.0356 35.5395 97.0964 37.6978 99.141 37.9355C99.5689 38.5059 106.701 38.6485 108.556 37.6502C110.41 36.6519 108.841 32.8013 108.556 28.8081C108.271 24.8149 116.972 15.2597 124.39 14.1188Z" fill="#F3F8E8"/>
</svg>
